<svg width="8" height="6" viewBox="0 0 8 6" fill="none" xmlns="http://www.w3.org/2000/svg">
<path d="M7.04156 0.880153C6.92672 0.785223 6.77903 0.73952 6.63065 0.752999C6.48226 0.766478 6.34522 0.838047 6.24937 0.952116L3.86852 3.80872L1.48765 0.952163C1.39207 0.837647 1.25492 0.765788 1.10636 0.752395C0.957805 0.739003 0.810011 0.785173 0.695495 0.880749C0.580979 0.976325 0.50912 1.11348 0.495727 1.26204C0.482334 1.41059 0.528505 1.55839 0.624081 1.6729L3.43674 5.04805C3.4895 5.11133 3.55553 5.16223 3.63014 5.19716C3.70476 5.2321 3.78614 5.2502 3.86852 5.2502C3.95091 5.2502 4.03229 5.2321 4.10691 5.19716C4.18152 5.16223 4.24755 5.11133 4.30031 5.04805L7.11297 1.67286C7.20851 1.55822 7.25465 1.41036 7.24127 1.26173C7.22788 1.1131 7.15605 0.975866 7.04156 0.880153Z" fill="#1E1F20"/>
</svg>
