<svg width="13" height="14" viewBox="0 0 13 14" fill="none" xmlns="http://www.w3.org/2000/svg">
<path opacity="0.4" d="M12.0546 5.22073C12.0546 5.26814 11.683 9.96768 11.4708 11.9455C11.3379 13.1593 10.5554 13.8955 9.38171 13.9164C8.47991 13.9366 7.59709 13.9436 6.72851 13.9436C5.80637 13.9436 4.90457 13.9366 4.02921 13.9164C2.89483 13.8892 2.11169 13.1384 1.98557 11.9455C1.76724 9.96071 1.40245 5.26814 1.39567 5.22073C1.38889 5.07781 1.435 4.94187 1.52857 4.83171C1.62078 4.72993 1.75368 4.66858 1.89336 4.66858H11.5637C11.7027 4.66858 11.8288 4.72993 11.9285 4.83171C12.0213 4.94187 12.0681 5.07781 12.0546 5.22073Z" fill="#FA4169"/>
<path d="M13 2.7726C13 2.48607 12.7742 2.26158 12.503 2.26158H10.4702C10.0566 2.26158 9.69721 1.96738 9.605 1.55257L9.49109 1.04434C9.33175 0.430147 8.78185 0 8.16483 0H5.28652C4.66271 0 4.11824 0.430147 3.9528 1.07781L3.84634 1.55327C3.75345 1.96738 3.39409 2.26158 2.98116 2.26158H0.94837C0.676473 2.26158 0.450684 2.48607 0.450684 2.7726V3.03752C0.450684 3.31708 0.676473 3.54854 0.94837 3.54854H12.503C12.7742 3.54854 13 3.31708 13 3.03752V2.7726Z" fill="#FA4169"/>
</svg>
