<svg width="14" height="14" viewBox="0 0 14 14" fill="none" xmlns="http://www.w3.org/2000/svg">
<path opacity="0.4" d="M13.1631 12.3582H8.75208C8.32171 12.3582 7.97168 12.7137 7.97168 13.1509C7.97168 13.5889 8.32171 13.9437 8.75208 13.9437H13.1631C13.5935 13.9437 13.9435 13.5889 13.9435 13.1509C13.9435 12.7137 13.5935 12.3582 13.1631 12.3582Z" fill="#00BA88"/>
<path d="M5.66192 3.02408L9.84181 6.40161C9.94264 6.48239 9.95986 6.63061 9.88116 6.73387L4.92579 13.1908C4.61428 13.5897 4.15522 13.8154 3.66338 13.8237L0.958209 13.857C0.813933 13.8587 0.687692 13.7587 0.654902 13.6155L0.0400917 10.9425C-0.0664755 10.4512 0.0400917 9.94319 0.351596 9.55181L5.33156 3.06405C5.4119 2.95996 5.56027 2.94164 5.66192 3.02408Z" fill="#00BA88"/>
<path opacity="0.4" d="M11.7131 4.38872L10.9073 5.39465C10.8261 5.49708 10.6802 5.51373 10.5794 5.43213C9.5998 4.63937 7.09137 2.60502 6.39541 2.04127C6.29376 1.95799 6.27982 1.80977 6.3618 1.70651L7.13892 0.741382C7.8439 -0.166289 9.07352 -0.249561 10.0654 0.541528L11.2049 1.4492C11.6721 1.8156 11.9836 2.29858 12.0902 2.80654C12.2132 3.3653 12.082 3.91407 11.7131 4.38872Z" fill="#00BA88"/>
</svg>
