<svg width="19" height="4" viewBox="0 0 19 4" fill="none" xmlns="http://www.w3.org/2000/svg">
<path d="M2.36841 0C1.26841 0 0.368408 0.9 0.368408 2C0.368408 3.1 1.26841 4 2.36841 4C3.46841 4 4.36841 3.1 4.36841 2C4.36841 0.9 3.46841 0 2.36841 0ZM16.3684 0C15.2684 0 14.3684 0.9 14.3684 2C14.3684 3.1 15.2684 4 16.3684 4C17.4684 4 18.3684 3.1 18.3684 2C18.3684 0.9 17.4684 0 16.3684 0ZM9.36841 0C8.26841 0 7.36841 0.9 7.36841 2C7.36841 3.1 8.26841 4 9.36841 4C10.4684 4 11.3684 3.1 11.3684 2C11.3684 0.9 10.4684 0 9.36841 0Z" fill="#00BA88"/>
</svg>
