<svg width="26" height="25" viewBox="0 0 26 25" fill="none" xmlns="http://www.w3.org/2000/svg">
<path fill-rule="evenodd" clip-rule="evenodd" d="M12.8472 25C5.76305 25 0 19.3927 0 12.5C0 5.60729 5.76305 0 12.8472 0C19.9314 0 25.6944 5.60729 25.6944 12.5C25.6944 19.3927 19.9314 25 12.8472 25ZM12.8472 2.08333C6.94392 2.08333 2.1412 6.75625 2.1412 12.5C2.1412 18.2437 6.94392 22.9167 12.8472 22.9167C18.7505 22.9167 23.5532 18.2437 23.5532 12.5C23.5532 6.75625 18.7505 2.08333 12.8472 2.08333ZM15.4049 12.8583C13.8536 14.0802 13.9114 15.4333 13.9146 15.4896C13.9478 16.0573 13.5067 16.5542 12.9243 16.5958C12.8965 16.5979 12.8708 16.599 12.844 16.599C12.2948 16.599 11.8301 16.199 11.7809 15.6583C11.7723 15.5583 11.585 13.1865 14.057 11.2385C14.7443 10.6979 14.9884 10.2229 14.9884 9.42812C14.9884 8.21771 14.0281 7.23229 12.8472 7.23229C11.6267 7.23229 10.706 8.12812 10.706 9.31562C10.706 9.89167 10.2264 10.3573 9.63542 10.3573C9.04444 10.3573 8.56481 9.89167 8.56481 9.31562C8.56481 6.98021 10.4459 5.15 12.8472 5.15C15.209 5.15 17.1296 7.06875 17.1296 9.42812C17.1296 10.8604 16.5975 11.9187 15.4049 12.8583ZM13.0239 17.6937C13.6063 17.7917 14.0024 18.301 13.9018 18.8687L13.8921 18.9271C13.8022 19.4333 13.3493 19.7917 12.8376 19.7917C12.7776 19.7917 12.7166 19.7865 12.6545 19.776C12.0721 19.6781 11.6813 19.1396 11.782 18.5729C11.8826 18.0062 12.4383 17.5948 13.0239 17.6937Z" fill="#1E1F20"/>
</svg>
