<svg width="136" height="34" viewBox="0 0 136 34" fill="none" xmlns="http://www.w3.org/2000/svg">
<path fill-rule="evenodd" clip-rule="evenodd" d="M83.4082 12.0158L80.063 2.55801H77.3398L82.127 15.1242H84.5484L84.565 15.0811L83.4346 11.9364L83.4082 12.0148V12.0158ZM84.5993 15.0683L84.6131 15.0311L84.1232 13.7481L84.5993 15.0693" fill="#4E4E4B"/>
<path fill-rule="evenodd" clip-rule="evenodd" d="M89.5394 2.5582H86.8163L84.6749 8.53087L85.8563 11.8659L89.5414 2.5582" fill="#282826"/>
<path fill-rule="evenodd" clip-rule="evenodd" d="M84.7038 8.52048L83.4814 11.9271L84.1357 13.7515L84.6254 15.0336L85.8862 11.8555L84.7038 8.52048Z" fill="#282826"/>
<path d="M73.6978 28.7929V21.8498H77.6041V22.6028H74.5181V24.9889H77.3209V25.7419H74.5181V28.7929H73.6978ZM82.5385 28.7929V21.8498H83.3588V28.7929H82.5385ZM88.5467 28.7929V21.8498H89.2694L93.1366 27.4141V21.8498H93.9374V28.7929H93.2148L89.3475 23.2287V28.7929H88.5467ZM98.5859 28.7929L101.379 21.8498H102.248L105.041 28.7929H104.162L103.391 26.8176H100.207L99.4356 28.7929H98.5859ZM100.5 26.0646H103.088L101.799 22.7593L100.5 26.0646ZM109.69 28.7929V21.8498H110.413L114.28 27.4141V21.8498H115.081V28.7929H114.358L110.491 23.2287V28.7929H109.69ZM123.303 28.9885C122.828 28.9885 122.389 28.9005 121.985 28.7245C121.588 28.542 121.24 28.2909 120.94 27.9715C120.647 27.6455 120.419 27.2641 120.257 26.8274C120.094 26.384 120.012 25.9016 120.012 25.3801C120.012 24.9563 120.065 24.5586 120.169 24.187C120.279 23.8089 120.432 23.4667 120.628 23.1602C120.83 22.8473 121.064 22.5799 121.331 22.3583C121.604 22.1301 121.907 21.9574 122.239 21.84C122.571 21.7162 122.923 21.6542 123.294 21.6542C123.71 21.6542 124.098 21.726 124.456 21.8694C124.82 22.0128 125.139 22.2149 125.413 22.4757C125.693 22.7364 125.908 23.0493 126.057 23.4145L125.305 23.6981C125.104 23.2873 124.827 22.9711 124.475 22.7495C124.13 22.5213 123.74 22.4072 123.303 22.4072C122.952 22.4072 122.626 22.4822 122.327 22.6321C122.034 22.7821 121.777 22.9907 121.555 23.258C121.334 23.5253 121.162 23.8383 121.038 24.1968C120.914 24.5553 120.852 24.9465 120.852 25.3703C120.852 25.7875 120.911 26.1722 121.028 26.5242C121.152 26.8698 121.324 27.1729 121.546 27.4337C121.767 27.6879 122.027 27.8868 122.327 28.0302C122.633 28.1671 122.965 28.2355 123.323 28.2355C123.772 28.2355 124.169 28.1247 124.514 27.9031C124.866 27.6814 125.152 27.3619 125.374 26.9447L126.126 27.2283C125.97 27.5934 125.751 27.9095 125.471 28.1769C125.192 28.4376 124.866 28.6398 124.495 28.7832C124.124 28.9201 123.727 28.9885 123.303 28.9885ZM130.976 28.7929V21.8498H134.971V22.5832H131.797V24.8129H134.697V25.5561H131.797V28.0497H135.068V28.7929H130.976Z" fill="#282826"/>
<path fill-rule="evenodd" clip-rule="evenodd" d="M52.966 1.54755H43.0822V3.78989H50.2574L43.0812 11.9294V14.1147H52.965V11.8724H46.0473L52.965 3.86445V1.54755H52.966ZM57.7148 5.45648C57.7472 5.31224 57.7912 5.18474 57.8412 5.07094C57.895 4.95714 57.9626 4.83649 58.0547 4.71291C58.1811 4.53639 58.3163 4.3902 58.4652 4.26955C58.6111 4.15086 58.7894 4.05869 59.0019 3.98803C59.2463 3.91066 59.4982 3.85895 59.7533 3.83401C60.0403 3.80565 60.3881 3.78989 60.7995 3.78989H63.9516V1.54755H59.86C59.4751 1.54755 59.1332 1.56625 58.8413 1.60353C58.5426 1.64082 58.2732 1.69766 58.0293 1.77222C57.7921 1.84654 57.5655 1.95142 57.3553 2.08418C57.1383 2.22658 56.9337 2.38733 56.7441 2.56482C55.4589 3.77033 54.8144 5.49767 54.8144 7.74588C54.8144 8.80226 54.9446 9.74985 55.2003 10.5884C55.4579 11.4329 55.8272 12.1353 56.316 12.7013C56.5443 12.9652 56.7901 13.1868 57.0605 13.3703C57.3239 13.5517 57.6325 13.6969 57.9852 13.8018C58.3377 13.9097 58.7453 13.9882 59.2037 14.0372C59.7339 14.0917 60.2665 14.1175 60.7995 14.1147H63.9516V11.8724H60.9022C60.3214 11.8724 59.8287 11.8224 59.4281 11.7234C59.0245 11.6213 58.6914 11.4575 58.4299 11.2328C58.159 10.9923 57.954 10.6864 57.8343 10.3442C57.6971 9.98223 57.6051 9.53104 57.56 8.99063H63.9516V6.74731H57.56C57.5846 6.43341 57.6051 6.17842 57.6267 5.97636C57.6521 5.77332 57.6825 5.59962 57.7148 5.45648ZM74.1919 9.68604C74.0489 10.2618 73.8588 10.717 73.6218 11.0417C73.418 11.3183 73.1252 11.5272 72.746 11.6645C72.368 11.8019 71.9116 11.8724 71.3766 11.8724H68.9837V3.78989H71.3766C71.8664 3.78989 72.2621 3.83401 72.5668 3.92141C72.8745 4.01163 73.1408 4.16173 73.3652 4.37455C73.6826 4.66193 73.9362 5.11996 74.1214 5.74777C74.3104 6.37754 74.4026 7.07394 74.4026 7.84098C74.4026 8.49324 74.333 9.10932 74.1919 9.68604ZM76.9866 6.49233C76.9369 6.064 76.8596 5.63935 76.7554 5.22105C76.6605 4.84627 76.5408 4.47821 76.3969 4.11944C76.2795 3.8224 76.126 3.54101 75.9394 3.28186C75.505 2.67385 74.8977 2.21106 74.1969 1.95375C73.4827 1.68201 72.5413 1.54755 71.3698 1.54755H66.5484V14.1147H71.3698C71.7439 14.1147 72.0732 14.1128 72.3572 14.102C72.6413 14.0991 72.8881 14.0823 73.0987 14.0579C73.3093 14.0323 73.4984 14.0029 73.6707 13.9735C73.8413 13.9431 74.0058 13.8951 74.1645 13.8313C74.7787 13.6184 75.2812 13.3036 75.672 12.8817C76.0658 12.4629 76.3675 11.8979 76.585 11.1957C76.7319 10.7287 76.8485 10.1961 76.9347 9.5929C77.0834 8.5661 77.1008 7.5245 76.9866 6.4933V6.49233ZM111.2 1.54755V10.9111L106.668 1.54755H103.583V14.1147H105.884V4.89932L110.537 14.1147H113.503V1.54755H111.2ZM119.139 4.80813C119.628 4.12836 120.433 3.78989 121.559 3.78989H125.121V1.54755H121.27C120.729 1.54706 120.188 1.5973 119.657 1.69766C119.141 1.79582 118.717 1.937 118.386 2.11657C117.576 2.52753 116.952 3.23272 116.516 4.23227C116.085 5.23278 115.865 6.43927 115.865 7.85662C115.865 8.98965 115.995 9.97538 116.252 10.8189C116.51 11.6606 116.884 12.3413 117.377 12.869C117.594 13.1103 117.821 13.3065 118.063 13.4654C118.301 13.6204 118.571 13.7479 118.866 13.8391C119.16 13.9353 119.497 14.0029 119.871 14.047C120.249 14.0932 120.679 14.1147 121.167 14.1147H125.121V11.8724H121.643C120.725 11.8724 120.042 11.6822 119.598 11.3045C119.258 11.0298 118.999 10.5806 118.823 9.95093C118.647 9.32116 118.558 8.54336 118.558 7.61435C118.552 7.04264 118.601 6.47167 118.706 5.90962C118.801 5.42702 118.945 5.05627 119.139 4.80715V4.80813ZM129.762 5.45648C129.794 5.31224 129.839 5.18474 129.889 5.07094C129.942 4.95714 130.011 4.83649 130.101 4.71291C130.23 4.53639 130.364 4.3902 130.509 4.26955C130.658 4.15086 130.836 4.05869 131.05 3.98803C131.26 3.91738 131.508 3.86738 131.797 3.83401C132.088 3.80565 132.437 3.78989 132.846 3.78989H136V1.54755H131.909C131.522 1.54755 131.182 1.56625 130.889 1.60353C130.614 1.63617 130.342 1.69265 130.077 1.77222C129.833 1.84972 129.607 1.95375 129.403 2.08418C129.186 2.22658 128.982 2.38745 128.793 2.56482C127.507 3.77033 126.865 5.49767 126.865 7.74588C126.865 8.80226 126.991 9.74985 127.25 10.5884C127.504 11.4329 127.876 12.1353 128.363 12.7013C128.593 12.9652 128.838 13.1868 129.108 13.3703C129.373 13.5517 129.68 13.6969 130.036 13.8018C130.388 13.9097 130.794 13.9882 131.251 14.0372C131.714 14.0883 132.246 14.1147 132.847 14.1147H136V11.8724H132.948C132.368 11.8724 131.878 11.8224 131.476 11.7234C131.071 11.6213 130.74 11.4575 130.479 11.2328C130.208 10.9924 130.003 10.6866 129.882 10.3442C129.743 9.98223 129.653 9.53104 129.607 8.99063H136V6.74731H129.608C129.634 6.43341 129.653 6.17842 129.675 5.97636C129.7 5.77332 129.728 5.59962 129.762 5.45648Z" fill="#4E4E4B"/>
<path fill-rule="evenodd" clip-rule="evenodd" d="M96.1209 4.28875L99.4642 13.7475H102.191L97.4012 1.18231H94.9818L94.9652 1.22644L96.0936 4.36918L96.1209 4.28973V4.28875ZM85.9963 1.2735L85.9816 1.30883L86.4714 2.59575L85.9973 1.2735" fill="#4E4E4B"/>
<path fill-rule="evenodd" clip-rule="evenodd" d="M89.9234 13.7941H92.6476L94.7908 7.82143L93.6105 4.48347L89.9234 13.7931V13.7941ZM94.8613 7.78708L96.0829 4.38055L95.4295 2.55993L94.9397 1.27399L93.682 4.44912L94.8623 7.78708" fill="#282826"/>
<path fill-rule="evenodd" clip-rule="evenodd" d="M19.642 5.49381L19.6345 5.49C18.345 4.9138 17.0896 4.42507 15.8989 4.01811C16.2085 3.85077 16.5161 3.68533 16.8257 3.52748C17.4999 3.16808 18.1664 2.86191 18.8331 2.57285C19.8624 2.12025 20.8897 1.69999 21.9286 1.34628C21.9893 1.31586 22.0558 1.31586 22.1128 1.27022C23.7516 0.699719 25.4058 0.249026 27.0694 -9.15527e-05L28.7672 1.11238L28.7728 1.11618C27.5003 1.54228 26.2487 2.02838 25.0221 2.57285C24.3536 2.85811 23.6852 3.17378 23.0185 3.52559C22.6479 3.71144 22.2837 3.90997 21.9266 4.1208C21.1501 4.553 20.3881 5.01092 19.642 5.49381ZM29.0216 11.2311C27.9448 10.3783 26.8274 9.57803 25.6735 8.83312C26.1844 8.42616 26.6952 8.02872 27.2117 7.6541C27.5688 7.37264 27.9258 7.0912 28.2885 6.84208C28.9437 6.35336 29.6121 5.89696 30.2807 5.47479C31.1618 4.92711 32.0507 4.41366 32.9489 3.91163L35.9019 5.84751L35.5696 6.07762C35.1938 6.31451 34.8305 6.57096 34.4815 6.84588C34.1206 7.09311 33.756 7.36884 33.3989 7.65029C32.3678 8.38433 31.3536 9.23247 30.3414 10.0692C30.332 10.0692 30.313 10.1148 30.3034 10.1148C29.8762 10.4762 29.4489 10.847 29.0216 11.233" fill="#C9C9C4"/>
<mask id="mask0" mask-type="alpha" maskUnits="userSpaceOnUse" x="0" y="0" width="28" height="13">
<path d="M0 0.00643921H27.2441V12.1086H0V0.00643921Z" fill="white"/>
</mask>
<g mask="url(#mask0)">
<path fill-rule="evenodd" clip-rule="evenodd" d="M27.5691 0.350011L27.5577 0.378536C27.4437 0.424176 27.3564 0.475521 27.2406 0.504046L26.9993 0.0761719C27.0492 0.0946421 27.0979 0.115586 27.1456 0.138926L27.5691 0.350011ZM8.34659 2.69285C7.31729 3.11503 6.28989 3.64368 5.27388 4.237C3.4239 5.24003 1.65829 6.39178 -0.0055542 7.68092C0.241326 7.86917 0.5015 8.05364 0.754077 8.25141C1.51941 8.82951 2.27904 9.45516 3.03867 10.1379C3.41304 10.4602 3.78215 10.7886 4.14584 11.1229L4.4117 11.3682C4.50286 11.4424 4.59022 11.5261 4.67947 11.6097L5.19982 12.108H5.20741C6.86151 10.5163 8.62019 9.03728 10.4717 7.68092C11.501 6.87461 12.5416 6.1729 13.5918 5.50922C14.3667 4.99577 15.1491 4.53557 15.9334 4.10199C13.6969 3.33437 11.4015 2.75116 9.07014 2.35817C8.82896 2.46846 8.58777 2.57685 8.34849 2.69285" fill="#4E4E4B"/>
<path fill-rule="evenodd" clip-rule="evenodd" d="M27.0903 0.0711262C25.4267 0.320244 23.7726 0.770938 22.1337 1.34334C22.0767 1.38708 22.0103 1.38708 21.9495 1.4194C20.9126 1.77121 19.8833 2.19338 18.854 2.64597C18.1893 2.93503 17.5208 3.2412 16.8466 3.6006C16.5371 3.75845 16.2294 3.92389 15.9218 4.09123C13.6853 3.32343 11.39 2.74021 9.05853 2.34742C9.89793 1.97089 10.7487 1.6495 11.6033 1.34334C12.2546 1.10183 12.9289 0.886943 13.5802 0.717691C14.5916 0.411616 15.6263 0.189011 16.6738 0.0521097L16.6815 0.0464048C16.7384 0.0121757 16.7896 0.0121757 16.8466 0.0121757C17.7297 -0.126646 18.5957 -0.267369 19.475 -0.335829C20.3519 -0.404619 21.2312 -0.441409 22.1109 -0.446125C22.8832 -0.446887 23.6552 -0.410079 24.424 -0.335829C25.2823 -0.271172 26.1312 -0.136154 26.9878 0.00456885L27.0903 0.0711262Z" fill="#282826"/>
<path fill-rule="evenodd" clip-rule="evenodd" d="M19.6249 5.50931C18.6147 6.15587 17.6082 6.85569 16.6131 7.61635C15.5724 8.35419 14.5449 9.19663 13.5175 10.0752C11.7362 11.5908 9.99093 13.308 8.25708 15.1374C9.32049 16.2597 10.3441 17.4192 11.326 18.6136C12.0704 19.4941 12.8111 20.405 13.5422 21.352C15.1993 19.2078 16.9594 17.1452 18.816 15.1717C19.8062 14.1001 20.8389 13.0685 21.9115 12.0795C23.1177 10.9324 24.3722 9.83732 25.6717 8.79728V8.79348C23.7445 7.54276 21.7229 6.4447 19.6249 5.50931Z" fill="#4E4E4B"/>
</g>
<mask id="mask1" mask-type="alpha" maskUnits="userSpaceOnUse" x="16" y="1" width="19" height="33">
<path d="M16.7154 1.20197H34.5402V33.7812H16.7154V1.20197Z" fill="white"/>
</mask>
<g mask="url(#mask1)">
<path fill-rule="evenodd" clip-rule="evenodd" d="M28.338 6.87653C28.9932 6.38779 29.6636 5.9295 30.3321 5.50733C31.2114 4.96156 32.1002 4.44811 32.9984 3.94606H32.9946L28.8071 1.20197C27.5347 1.62801 26.2831 2.11412 25.0565 2.65864C24.388 2.9439 23.7194 3.25956 23.0529 3.61138C22.6822 3.79723 22.318 3.99575 21.961 4.20659C21.1975 4.63066 20.4359 5.09087 19.6764 5.57959C21.7736 6.51507 23.7946 7.61313 25.7212 8.86377L25.7249 8.86757C26.2339 8.46061 26.7447 8.06126 27.2632 7.68853C27.6202 7.40518 27.9772 7.12565 28.338 6.87653Z" fill="#282826"/>
<path fill-rule="evenodd" clip-rule="evenodd" d="M27.282 12.9525C26.549 13.6979 25.8007 14.4357 25.0543 15.2401C23.9999 16.3603 22.9771 17.51 21.9874 18.6879C21.9816 18.6879 21.9816 18.7201 21.9608 18.7201C20.9057 19.9709 19.8831 21.2485 18.8937 22.5519C18.1588 23.5313 17.4314 24.5145 16.7155 25.5756C17.7525 27.0916 18.7654 28.6239 19.7541 30.1719C20.5042 31.3281 21.2353 32.5262 21.9608 33.7851C22.6825 32.5262 23.4193 31.3281 24.1656 30.1719C25.1721 28.6278 26.1843 27.0837 27.2079 25.6061C27.2231 25.5738 27.2326 25.5738 27.2478 25.5414C28.2421 24.1413 29.2718 22.7665 30.3357 21.4185C31.0631 20.4735 31.8075 19.555 32.5463 18.6879C33.2052 17.8834 33.8718 17.1285 34.5403 16.3869C32.8624 14.5304 31.0331 12.8175 29.0709 11.2656C28.4583 11.8103 27.8617 12.3728 27.282 12.9525Z" fill="#4E4E4B"/>
<path fill-rule="evenodd" clip-rule="evenodd" d="M47.1199 0.709259H47.0857C46.4081 0.859243 45.7417 1.05687 45.0917 1.30068C44.7366 1.41287 44.3948 1.5555 44.051 1.69242C43.299 1.97006 42.5527 2.29334 41.7988 2.64325C41.1435 2.92089 40.4732 3.24417 39.8142 3.55605C39.4439 3.76713 39.083 3.94398 38.7166 4.15697C38.7033 4.15697 38.69 4.15697 38.6824 4.1912C37.7708 4.68564 36.8688 5.22 35.9818 5.82663L41.5898 9.50254C42.3535 8.84376 43.1455 8.21878 43.9637 7.6294C43.9751 7.59708 43.9751 7.59708 43.9826 7.59708C44.3454 7.31373 44.7233 7.07032 45.0728 6.82691C45.7374 6.33247 46.4021 5.87988 47.0668 5.48624C47.7923 4.9918 48.5176 4.57344 49.2507 4.15697C49.6248 3.94398 49.9724 3.76713 50.3521 3.55794C51.0074 3.20614 51.6759 2.88476 52.331 2.60522C50.6436 1.84409 48.9017 1.21035 47.1199 0.709259ZM35.5982 6.09667C35.2224 6.33357 34.8591 6.59001 34.5101 6.86494C34.1403 7.11996 33.7799 7.38826 33.4295 7.66934C32.3964 8.40338 31.3842 9.25152 30.37 10.0883C30.3624 10.0883 30.3435 10.1339 30.3321 10.1339C29.9048 10.4952 29.4775 10.866 29.0502 11.2521C31.0124 12.804 32.8417 14.5169 34.5196 16.3732L35.5982 15.1904C35.6058 15.1904 35.6229 15.158 35.6286 15.158C36.6465 14.0628 37.6758 13.0815 38.6956 12.0983C39.036 11.757 39.3896 11.4291 39.7553 11.1151C40.1199 10.7576 40.4998 10.4496 40.8682 10.1339C41.0904 9.93232 41.3106 9.73454 41.5385 9.54248L35.9325 5.86466L35.5982 6.09667Z" fill="#282826"/>
<path fill-rule="evenodd" clip-rule="evenodd" d="M27.2442 0.0427855H27.2518C28.2773 0.187311 29.3123 0.400298 30.3378 0.710268L30.3435 0.71217C30.9987 0.887127 31.6634 1.10011 32.3185 1.34733C33.42 1.73336 34.5083 2.15362 35.5849 2.67849H35.5887C36.6142 3.10065 37.6398 3.62932 38.6558 4.22644L38.6615 4.23024C40.5116 5.22979 42.2767 6.37973 43.9391 7.66845H43.9409C43.3349 8.10996 42.7409 8.56779 42.1596 9.04145C41.7285 9.3906 41.3079 9.75272 40.8986 10.1273L40.4808 10.4848L40.4656 10.4962C40.2852 10.6541 40.1048 10.8138 39.9225 10.9811L39.8902 11.0116L39.7839 11.1105L39.649 11.2303L39.3831 11.468C39.1647 11.6695 38.9463 11.875 38.7317 12.0955L38.7299 12.0917C37.0709 10.5041 35.3099 9.02718 33.458 7.67035V7.66845C32.457 6.89029 31.4174 6.16295 30.3435 5.48915L30.3378 5.48724C29.261 4.78933 28.1728 4.15417 27.0714 3.59509C26.4156 3.24894 25.7452 2.93107 25.0622 2.64236C24.0367 2.18976 23.0111 1.7676 21.9686 1.41578C21.9079 1.37965 21.8471 1.37965 21.7825 1.34733C20.1354 0.746814 18.4332 0.310487 16.7005 0.0446863H16.6949C16.6321 0.0104571 16.5866 0.0104572 16.522 0.0104572C17.5036 -0.17759 18.4975 -0.294528 19.496 -0.339449C20.3721 -0.413579 21.2509 -0.449111 22.13 -0.445942C22.9029 -0.446591 23.6755 -0.411055 24.445 -0.339449C25.3015 -0.274793 26.1503 -0.139775 27.0088 0.00285026C27.0277 0.00285026 27.0505 0.0066531 27.0696 0.0104572" fill="#ECBA3E"/>
<path fill-rule="evenodd" clip-rule="evenodd" d="M43.9391 7.66825C42.2767 6.37953 40.5116 5.2296 38.6615 4.23005L38.6558 4.22624C37.6714 3.63869 36.6465 3.12204 35.5887 2.68019H35.5869C34.525 2.1725 33.4343 1.72739 32.3205 1.34713C31.6634 1.09992 30.9987 0.886931 30.3455 0.711975H30.3378C29.3279 0.409913 28.2961 0.186749 27.2518 0.0444919H27.2442L27.0696 0.0102615C25.871 -0.206153 24.6602 -0.347782 23.4441 -0.413808C23.0111 -0.432825 22.5706 -0.446136 22.13 -0.446136C21.251 -0.446117 20.3722 -0.41059 19.496 -0.339643C18.4975 -0.294724 17.5036 -0.177785 16.522 0.0102615C16.5866 0.0102615 16.6321 0.0102615 16.6949 0.0425898H16.7005C18.4098 0.293609 20.1036 0.746205 21.7825 1.34713C21.8471 1.37945 21.9079 1.37945 21.9685 1.41559C23.0093 1.76929 24.0367 2.18956 25.064 2.64216C25.7326 2.92742 26.4011 3.23928 27.0696 3.59299C28.171 4.15398 29.261 4.78914 30.336 5.48704L30.3416 5.48895C31.3937 6.16023 32.4306 6.85814 33.4561 7.66825H33.458C35.3099 9.0257 37.071 10.5033 38.7299 12.0915V12.0934C39.0251 11.7939 39.3317 11.506 39.649 11.2301L39.7819 11.1103L39.8902 11.0114L39.9225 10.9809C40.1048 10.8136 40.2852 10.6539 40.4656 10.496L40.4808 10.4846L40.8986 10.1271C41.3077 9.75229 41.7282 9.39016 42.1596 9.04125L42.416 8.83207C42.9249 8.42511 43.4338 8.03907 43.9409 7.67016L43.9391 7.66825ZM52.276 2.64216C51.6227 2.92171 50.9542 3.24879 50.299 3.59299C50.204 3.64814 50.111 3.69758 50.0198 3.74702L49.8831 3.8212L49.473 4.04179C49.4138 4.07425 49.3549 4.10722 49.2963 4.14067L49.2546 4.16159L49.1938 4.19582L48.9222 4.34985C48.4611 4.61335 48.0052 4.88598 47.5548 5.16756C47.3764 5.28166 47.194 5.39957 47.0155 5.52318H47.0136C45.3386 4.43055 43.5759 3.47899 41.7437 2.67829C40.745 2.19213 39.7161 1.77098 38.6634 1.41749C38.6045 1.38516 38.5362 1.38516 38.4773 1.33952C36.8042 0.750009 35.1045 0.293609 33.4067 0.0463939C33.4675 0.0140656 33.5131 0.0140656 33.5738 0.0140656C34.4531 -0.13046 35.321 -0.271183 36.1984 -0.337742C37.2678 -0.423225 38.3408 -0.456861 39.4135 -0.43853C39.987 -0.42712 40.5624 -0.396693 41.1341 -0.34725L41.2822 -0.332037C42.1102 -0.252167 42.9325 -0.124755 43.7472 0.0140656C43.8137 0.0140656 43.8821 0.0444919 43.9466 0.0444919L43.958 0.0463939C44.9759 0.227051 46.0033 0.472366 47.0326 0.748107H47.0648C48.8254 1.23873 50.5592 1.87389 52.2778 2.64407" fill="#F58634"/>
</g>
</svg>
