<svg width="112" height="27" viewBox="0 0 112 27" fill="none" xmlns="http://www.w3.org/2000/svg">
<path d="M59.5163 22.8757V17.3632H62.7862V17.9611H60.2029V19.8555H62.5491V20.4533H60.2029V22.8757H59.5163ZM66.9166 22.8757V17.3632H67.6033V22.8757H66.9166ZM71.9461 22.8757V17.3632H72.551L75.7882 21.781V17.3632H76.4585V22.8757H75.8536L72.6164 18.458V22.8757H71.9461ZM80.3497 22.8757L82.6877 17.3632H83.4152L85.7532 22.8757H85.0174L84.3716 21.3074H81.7067L81.0609 22.8757H80.3497ZM81.9519 20.7095H84.1182L83.0392 18.0853L81.9519 20.7095ZM89.6447 22.8757V17.3632H90.2496L93.4868 21.781V17.3632H94.1571V22.8757H93.5522L90.315 18.458V22.8757H89.6447ZM101.04 23.031C100.642 23.031 100.275 22.9611 99.9366 22.8214C99.6042 22.6765 99.3127 22.4771 99.0619 22.2235C98.8167 21.9647 98.626 21.6619 98.4897 21.3151C98.3535 20.9631 98.2853 20.5802 98.2853 20.1661C98.2853 19.8296 98.329 19.5139 98.4161 19.2188C98.5088 18.9187 98.6369 18.6469 98.8004 18.4036C98.9694 18.1552 99.1656 17.9429 99.3889 17.767C99.6178 17.5858 99.8712 17.4486 100.149 17.3555C100.427 17.2572 100.721 17.2079 101.032 17.2079C101.381 17.2079 101.705 17.2649 102.005 17.3788C102.31 17.4926 102.577 17.6531 102.806 17.8601C103.04 18.0671 103.22 18.3156 103.346 18.6055L102.716 18.8306C102.547 18.5045 102.315 18.2535 102.021 18.0775C101.732 17.8963 101.405 17.8058 101.04 17.8058C100.746 17.8058 100.474 17.8653 100.223 17.9844C99.9775 18.1034 99.7623 18.269 99.577 18.4813C99.3917 18.6935 99.2473 18.942 99.1437 19.2266C99.0402 19.5113 98.9884 19.8218 98.9884 20.1583C98.9884 20.4895 99.0374 20.795 99.1355 21.0745C99.2391 21.3488 99.3835 21.5895 99.5688 21.7965C99.7541 21.9984 99.9721 22.1563 100.223 22.2701C100.479 22.3788 100.757 22.4332 101.057 22.4332C101.433 22.4332 101.765 22.3451 102.054 22.1692C102.348 21.9932 102.588 21.7395 102.773 21.4083L103.403 21.6335C103.272 21.9234 103.089 22.1743 102.855 22.3866C102.621 22.5936 102.348 22.7541 102.038 22.868C101.727 22.9767 101.395 23.031 101.04 23.031ZM107.463 22.8757V17.3632H110.807V17.9455H108.15V19.7157H110.578V20.3058H108.15V22.2856H110.888V22.8757H107.463Z" fill="white"/>
<path fill-rule="evenodd" clip-rule="evenodd" d="M41.9139 3.9773H33.6404V5.7576H39.6467L33.6396 12.2199V13.955H41.9131V12.1747H36.1225L41.9131 5.8168V3.9773H41.9139ZM45.8891 7.08079C45.9162 6.96627 45.9531 6.86505 45.9949 6.77469C46.0399 6.68434 46.0965 6.58855 46.1736 6.49043C46.2795 6.35029 46.3926 6.23422 46.5172 6.13843C46.6393 6.04419 46.7886 5.97101 46.9665 5.91492C47.1711 5.85349 47.3819 5.81243 47.5955 5.79263C47.8357 5.77012 48.1268 5.7576 48.4712 5.7576H51.1098V3.9773H47.6848C47.3626 3.9773 47.0764 3.99215 46.8321 4.02175C46.582 4.05135 46.3565 4.09648 46.1523 4.15568C45.9538 4.21468 45.7641 4.29795 45.5882 4.40335C45.4065 4.51642 45.2352 4.64404 45.0765 4.78496C44.0007 5.74207 43.4612 7.1135 43.4612 8.89846C43.4612 9.73717 43.5702 10.4895 43.7842 11.1553C43.9999 11.8258 44.309 12.3835 44.7182 12.8328C44.9093 13.0423 45.1151 13.2183 45.3414 13.364C45.5619 13.508 45.8202 13.6233 46.1154 13.7066C46.4106 13.7922 46.7517 13.8546 47.1354 13.8935C47.5792 13.9368 48.0251 13.9572 48.4712 13.955H51.1098V12.1747H48.5572C48.071 12.1747 47.6586 12.135 47.3233 12.0564C46.9854 11.9754 46.7066 11.8453 46.4877 11.6669C46.261 11.4759 46.0893 11.2331 45.9891 10.9614C45.8743 10.674 45.7972 10.3158 45.7595 9.88672H51.1098V8.10565H45.7595C45.7801 7.85642 45.7972 7.65397 45.8153 7.49355C45.8366 7.33235 45.862 7.19444 45.8891 7.08079ZM59.6817 10.4388C59.5621 10.896 59.403 11.2574 59.2045 11.5151C59.034 11.7348 58.7888 11.9006 58.4714 12.0096C58.155 12.1187 57.7729 12.1747 57.3251 12.1747H55.322V5.7576H57.3251C57.7351 5.7576 58.0664 5.79263 58.3214 5.86203C58.579 5.93365 58.8019 6.05283 58.9897 6.22179C59.2554 6.44996 59.4677 6.81361 59.6228 7.31206C59.7809 7.81207 59.8581 8.36497 59.8581 8.97396C59.8581 9.49183 59.7998 9.98096 59.6817 10.4388ZM62.0211 7.9032C61.9795 7.56313 61.9149 7.22598 61.8276 6.89387C61.7482 6.59631 61.6479 6.30409 61.5275 6.01925C61.4293 5.78341 61.3007 5.56 61.1446 5.35426C60.7809 4.87152 60.2725 4.50409 59.6859 4.2998C59.0881 4.08405 58.3001 3.9773 57.3194 3.9773H53.2836V13.955H57.3194C57.6326 13.955 57.9082 13.9534 58.146 13.9449C58.3838 13.9426 58.5904 13.9293 58.7667 13.9099C58.9429 13.8896 59.1012 13.8662 59.2455 13.8429C59.3882 13.8187 59.526 13.7806 59.6588 13.7299C60.1729 13.561 60.5936 13.311 60.9207 12.976C61.2504 12.6436 61.5029 12.195 61.6849 11.6374C61.808 11.2667 61.9055 10.8438 61.9777 10.3649C62.1021 9.54967 62.1168 8.7227 62.0211 7.90398V7.9032ZM90.6609 3.9773V11.4115L86.8669 3.9773H84.2841V13.955H86.211V6.63843L90.1058 13.955H92.5879V3.9773H90.6609ZM97.3064 6.56603C97.7152 6.02633 98.3896 5.7576 99.3317 5.7576H102.313V3.9773H99.0895C98.6369 3.97691 98.1842 4.0168 97.7397 4.09648C97.3074 4.17441 96.9529 4.2865 96.6759 4.42907C95.9974 4.75535 95.4753 5.31524 95.1105 6.10883C94.7498 6.90319 94.5658 7.86108 94.5658 8.98638C94.5658 9.88595 94.6742 10.6686 94.8898 11.3383C95.1054 12.0065 95.4181 12.547 95.8309 12.966C96.0128 13.1575 96.2028 13.3133 96.4052 13.4395C96.6044 13.5625 96.8302 13.6638 97.0775 13.7362C97.3238 13.8125 97.6058 13.8662 97.9185 13.9012C98.2353 13.9379 98.595 13.955 99.0037 13.955H102.313V12.1747H99.4022C98.6338 12.1747 98.0616 12.0237 97.6906 11.7238C97.4055 11.5057 97.1889 11.1491 97.0418 10.6492C96.8946 10.1492 96.82 9.53162 96.82 8.79403C96.8149 8.34012 96.8558 7.8868 96.9437 7.44056C97.0234 7.0574 97.1439 6.76305 97.3064 6.56526V6.56603ZM106.198 7.08079C106.225 6.96627 106.263 6.86505 106.305 6.77469C106.349 6.68434 106.407 6.58855 106.483 6.49043C106.59 6.35029 106.702 6.23422 106.824 6.13843C106.949 6.04419 107.098 5.97101 107.277 5.91492C107.452 5.85882 107.66 5.81913 107.902 5.79263C108.145 5.77012 108.437 5.7576 108.78 5.7576H111.42V3.9773H107.996C107.672 3.9773 107.387 3.99215 107.142 4.02175C106.912 4.04766 106.684 4.0925 106.462 4.15568C106.258 4.21721 106.069 4.2998 105.898 4.40335C105.716 4.51642 105.546 4.64413 105.387 4.78496C104.311 5.74207 103.774 7.1135 103.774 8.89846C103.774 9.73717 103.879 10.4895 104.096 11.1553C104.308 11.8258 104.62 12.3835 105.027 12.8328C105.22 13.0423 105.425 13.2183 105.651 13.364C105.873 13.508 106.13 13.6233 106.427 13.7066C106.723 13.7922 107.062 13.8546 107.445 13.8935C107.832 13.9339 108.278 13.955 108.781 13.955H111.42V12.1747H108.865C108.38 12.1747 107.969 12.135 107.633 12.0564C107.294 11.9754 107.017 11.8453 106.798 11.6669C106.571 11.476 106.4 11.2332 106.299 10.9614C106.182 10.674 106.108 10.3158 106.069 9.88672H111.42V8.10565H106.07C106.091 7.85642 106.108 7.65397 106.126 7.49355C106.146 7.33235 106.17 7.19444 106.198 7.08079Z" fill="white"/>
<path fill-rule="evenodd" clip-rule="evenodd" d="M67.8015 11.4863L65.0013 3.97729H62.7217L66.729 13.9542H68.7559L68.7698 13.92L67.8236 11.4232L67.8015 11.4855V11.4863ZM68.7985 13.9099L68.8101 13.8803L68.4 12.8616L68.7985 13.9106" fill="white"/>
<path fill-rule="evenodd" clip-rule="evenodd" d="M72.9338 3.97729H70.6543L68.8618 8.7193L69.8507 11.3671L72.9355 3.97729" fill="white"/>
<path fill-rule="evenodd" clip-rule="evenodd" d="M68.8863 8.71088L67.863 11.4156L68.4107 12.8641L68.8206 13.8819L69.876 11.3587L68.8863 8.71088Z" fill="white"/>
<path fill-rule="evenodd" clip-rule="evenodd" d="M78.0384 6.15379L80.837 13.6636H83.1198L79.1101 3.68744H77.0849L77.071 3.72247L78.0155 6.21765L78.0384 6.15457V6.15379ZM69.5633 3.75984L69.551 3.78789L69.961 4.80964L69.5641 3.75984" fill="white"/>
<path fill-rule="evenodd" clip-rule="evenodd" d="M72.8503 13.7002H75.1307L76.9248 8.95823L75.9367 6.30806L72.8503 13.6995V13.7002ZM76.9838 8.93095L78.0064 6.22634L77.4594 4.78086L77.0494 3.75989L75.9966 6.28079L76.9846 8.93095" fill="white"/>
<path fill-rule="evenodd" clip-rule="evenodd" d="M16.4417 4.36188L16.4354 4.35886C15.356 3.90138 14.3052 3.51336 13.3085 3.19025C13.5676 3.05739 13.8251 2.92604 14.0843 2.80072C14.6486 2.51537 15.2065 2.27229 15.7646 2.04279C16.6262 1.68345 17.4862 1.34978 18.3558 1.06895C18.4066 1.0448 18.4622 1.0448 18.51 1.00857C19.8818 0.555614 21.2665 0.197787 22.659 0L24.0802 0.883245L24.0849 0.886263C23.0197 1.22456 21.9721 1.6105 20.9453 2.04279C20.3857 2.26927 19.8262 2.51989 19.2682 2.79921C18.9579 2.94677 18.653 3.10439 18.3541 3.27178C17.7041 3.61493 17.0663 3.97849 16.4417 4.36188ZM24.2932 8.91701C23.3918 8.23991 22.4565 7.60454 21.4906 7.01312C21.9182 6.69002 22.3458 6.37447 22.7782 6.07704C23.0771 5.85358 23.376 5.63013 23.6795 5.43234C24.228 5.04432 24.7875 4.68196 25.3472 4.34678C26.0848 3.91195 26.8288 3.5043 27.5806 3.10571L30.0526 4.6427L29.7744 4.82539C29.4598 5.01348 29.1557 5.21708 28.8636 5.43536C28.5615 5.63164 28.2563 5.85056 27.9574 6.07402C27.0942 6.65681 26.2453 7.33019 25.398 7.99451C25.3901 7.99451 25.3742 8.03075 25.3662 8.03075C25.0086 8.31761 24.6509 8.61203 24.2932 8.91852" fill="#C9C9C4"/>
<mask id="mask0" mask-type="alpha" maskUnits="userSpaceOnUse" x="0" y="0" width="23" height="10">
<path d="M0 0.00714111H22.8055V9.61565H0V0.00714111Z" fill="white"/>
</mask>
<g mask="url(#mask0)">
<path fill-rule="evenodd" clip-rule="evenodd" d="M23.0773 0.279426L23.0678 0.302074C22.9724 0.33831 22.8993 0.379075 22.8024 0.401722L22.6004 0.0620117C22.6421 0.0766761 22.6829 0.0933048 22.7229 0.111836L23.0773 0.279426ZM6.98659 2.13953C6.12499 2.47471 5.26496 2.89444 4.41449 3.3655C2.86591 4.16185 1.38795 5.07628 -0.00482178 6.09979C0.201837 6.24926 0.419623 6.39572 0.63105 6.55274C1.27169 7.01172 1.90756 7.50846 2.54343 8.05049C2.85681 8.30638 3.16579 8.56712 3.47022 8.83257L3.69277 9.02734C3.76908 9.08622 3.8422 9.15266 3.91692 9.21909L4.35249 9.61469H4.35885C5.74346 8.35093 7.21562 7.17668 8.76545 6.09979C9.62705 5.45963 10.4982 4.90251 11.3773 4.37558C12.0259 3.96793 12.6808 3.60255 13.3373 3.25831C11.4652 2.64886 9.54382 2.18582 7.59226 1.8738C7.39037 1.96137 7.18848 2.04742 6.98818 2.13953" fill="white"/>
<path fill-rule="evenodd" clip-rule="evenodd" d="M22.6769 0.0566766C21.2843 0.254463 19.8997 0.612292 18.5278 1.06674C18.4801 1.10148 18.4245 1.10148 18.3736 1.12714C17.5057 1.40646 16.6441 1.74164 15.7824 2.10098C15.226 2.33047 14.6665 2.57356 14.1021 2.8589C13.843 2.98423 13.5855 3.11558 13.328 3.24844C11.4559 2.63884 9.53446 2.17579 7.58286 1.86394C8.28549 1.56499 8.99768 1.30983 9.71303 1.06674C10.2583 0.875 10.8226 0.704394 11.3679 0.570017C12.2145 0.327008 13.0806 0.150272 13.9574 0.0415784L13.9639 0.0370491C14.0115 0.00987291 14.0544 0.00987288 14.1021 0.00987288C14.8413 -0.100345 15.5662 -0.212072 16.3022 -0.266425C17.0363 -0.321041 17.7724 -0.350251 18.5087 -0.353995C19.1552 -0.3546 19.8014 -0.325376 20.445 -0.266425C21.1635 -0.215091 21.874 -0.107894 22.5911 0.00383341L22.6769 0.0566766Z" fill="white"/>
<path fill-rule="evenodd" clip-rule="evenodd" d="M16.4277 4.37445C15.5821 4.88779 14.7396 5.44341 13.9065 6.04734C13.0354 6.63315 12.1753 7.302 11.3154 7.99953C9.82423 9.20287 8.3633 10.5662 6.91193 12.0187C7.80208 12.9097 8.65892 13.8303 9.48085 14.7786C10.104 15.4777 10.724 16.2009 11.336 16.9528C12.7232 15.2504 14.1964 13.6128 15.7506 12.0459C16.5795 11.1951 17.444 10.3761 18.3417 9.59087C19.3514 8.68011 20.4016 7.81067 21.4893 6.98494V6.98192C19.8761 5.98891 18.1839 5.1171 16.4277 4.37445Z" fill="white"/>
</g>
<mask id="mask1" mask-type="alpha" maskUnits="userSpaceOnUse" x="13" y="0" width="16" height="27">
<path d="M13.992 0.954407H28.9128V26.8207H13.992V0.954407Z" fill="white"/>
</mask>
<g mask="url(#mask1)">
<path fill-rule="evenodd" clip-rule="evenodd" d="M23.7215 5.45972C24.2699 5.07169 24.8311 4.70783 25.3906 4.37265C26.1267 3.93933 26.8707 3.53168 27.6225 3.13308H27.6194L24.1141 0.954407C23.049 1.29267 22.0013 1.67861 20.9745 2.11093C20.415 2.33741 19.8553 2.58804 19.2974 2.86736C18.9871 3.01491 18.6822 3.17253 18.3834 3.33993C17.7443 3.67663 17.1068 4.042 16.471 4.43002C18.2265 5.17274 19.9183 6.04455 21.5309 7.03749L21.5341 7.04051C21.9601 6.7174 22.3877 6.40034 22.8217 6.10441C23.1206 5.87945 23.4194 5.65751 23.7215 5.45972Z" fill="white"/>
<path fill-rule="evenodd" clip-rule="evenodd" d="M22.8373 10.2836C22.2237 10.8754 21.5973 11.4612 20.9726 12.0999C20.0899 12.9893 19.2338 13.902 18.4053 14.8372C18.4005 14.8372 18.4005 14.8628 18.383 14.8628C17.4999 15.8559 16.6439 16.8702 15.8157 17.9051C15.2005 18.6827 14.5916 19.4632 13.9923 20.3057C14.8603 21.5094 15.7083 22.7259 16.5358 23.955C17.1638 24.873 17.7757 25.8242 18.383 26.8237C18.9871 25.8242 19.6039 24.873 20.2287 23.955C21.0712 22.729 21.9185 21.5031 22.7753 20.3299C22.788 20.3043 22.796 20.3043 22.8087 20.2786C23.641 19.1669 24.5029 18.0754 25.3935 17.0052C26.0024 16.2549 26.6255 15.5257 27.2439 14.8372C27.7955 14.1985 28.3535 13.5991 28.9131 13.0103C27.5086 11.5364 25.9773 10.1764 24.3347 8.94434C23.822 9.37675 23.3226 9.82337 22.8373 10.2836Z" fill="white"/>
<path fill-rule="evenodd" clip-rule="evenodd" d="M39.4429 0.563416H39.4143C38.847 0.682495 38.2892 0.839397 37.7451 1.03297C37.4478 1.12205 37.1617 1.23529 36.874 1.34399C36.2445 1.56443 35.6198 1.8211 34.9887 2.0989C34.4401 2.31934 33.8791 2.57601 33.3275 2.82362C33.0174 2.99121 32.7154 3.13162 32.4086 3.30072C32.3975 3.30072 32.3863 3.30072 32.38 3.3279C31.6169 3.72046 30.8619 4.14472 30.1194 4.62635L34.8137 7.54484C35.453 7.0218 36.116 6.5256 36.8009 6.05766C36.8104 6.032 36.8104 6.032 36.8167 6.032C37.1204 5.80703 37.4367 5.61378 37.7292 5.42052C38.2856 5.02796 38.842 4.66863 39.3984 4.35609C40.0057 3.96353 40.6129 3.63138 41.2265 3.30072C41.5397 3.13162 41.8306 2.99121 42.1485 2.82513C42.697 2.54581 43.2566 2.29066 43.805 2.06871C42.3925 1.46441 40.9343 0.961254 39.4429 0.563416ZM29.7983 4.84075C29.4837 5.02883 29.1796 5.23243 28.8875 5.45071C28.5779 5.65319 28.2762 5.86621 27.9829 6.08936C27.1181 6.67215 26.2708 7.34554 25.4219 8.00986C25.4156 8.00986 25.3997 8.04609 25.3901 8.04609C25.0325 8.33297 24.6748 8.62738 24.3171 8.93388C25.9596 10.1659 27.4909 11.526 28.8954 12.9998L29.7983 12.0607C29.8047 12.0607 29.819 12.035 29.8238 12.035C30.6758 11.1654 31.5374 10.3863 32.391 9.60573C32.676 9.33478 32.972 9.0744 33.2781 8.82516C33.5833 8.54132 33.9013 8.29673 34.2097 8.04609C34.3957 7.88606 34.58 7.72903 34.7708 7.57654L30.0781 4.65654L29.7983 4.84075Z" fill="white"/>
<path fill-rule="evenodd" clip-rule="evenodd" d="M22.8053 0.0341754H22.8116C23.6701 0.148922 24.5365 0.318022 25.3949 0.564123L25.3997 0.565633C25.9481 0.70454 26.5045 0.873641 27.0529 1.06992C27.9749 1.3764 28.8859 1.71007 29.7871 2.12679H29.7903C30.6488 2.46197 31.5072 2.8817 32.3577 3.35579L32.3625 3.3588C33.9112 4.1524 35.3887 5.06539 36.7802 6.08856H36.7817C36.2745 6.4391 35.7773 6.8026 35.2907 7.17866C34.9298 7.45586 34.5777 7.74337 34.2351 8.04076L33.8853 8.32462L33.8727 8.33367C33.7216 8.45898 33.5706 8.58581 33.418 8.71867L33.391 8.74284L33.302 8.82134L33.1891 8.91646L32.9665 9.10519C32.7837 9.26523 32.6009 9.42834 32.4212 9.60342L32.4197 9.60041C31.031 8.33996 29.5569 7.16733 28.0067 6.09008V6.08856C27.1688 5.47075 26.2986 4.89328 25.3997 4.35831L25.3949 4.3568C24.4935 3.8027 23.5826 3.29841 22.6606 2.85453C22.1117 2.5797 21.5505 2.32733 20.9788 2.0981C20.1203 1.73876 19.2619 1.40359 18.3892 1.12427C18.3383 1.09558 18.2874 1.09558 18.2334 1.06992C16.8546 0.593138 15.4298 0.246717 13.9793 0.0356845H13.9746C13.9221 0.00850829 13.884 0.00850832 13.83 0.00850832C14.6516 -0.140792 15.4836 -0.233635 16.3194 -0.269299C17.0527 -0.328155 17.7884 -0.356366 18.5243 -0.353849C19.1712 -0.354365 19.8179 -0.326151 20.4621 -0.269299C21.179 -0.217966 21.8896 -0.110768 22.6082 0.00246885C22.624 0.00246885 22.6431 0.0054881 22.6591 0.00850832" fill="#ECBA3E"/>
<path fill-rule="evenodd" clip-rule="evenodd" d="M36.7802 6.08841C35.3887 5.06523 33.9112 4.15224 32.3625 3.35865L32.3577 3.35563C31.5337 2.88915 30.6757 2.47895 29.7903 2.12814H29.7888C28.8999 1.72506 27.9869 1.37167 27.0545 1.06976C26.5045 0.873486 25.9481 0.704384 25.4013 0.565478H25.3948C24.5495 0.325656 23.6858 0.148475 22.8116 0.0355302H22.8053L22.6591 0.00835302C21.6558 -0.163469 20.6423 -0.275916 19.6243 -0.328337C19.2619 -0.343435 18.8931 -0.354004 18.5243 -0.354004C17.7885 -0.353988 17.0528 -0.325782 16.3194 -0.269454C15.4836 -0.23379 14.6516 -0.140946 13.83 0.00835302C13.884 0.00835302 13.9221 0.00835302 13.9746 0.0340201H13.9793C15.4101 0.233317 16.828 0.592655 18.2334 1.06976C18.2874 1.09542 18.3383 1.09542 18.3891 1.12411C19.2603 1.40494 20.1203 1.73861 20.9803 2.09795C21.54 2.32443 22.0995 2.57203 22.6591 2.85286C23.5811 3.29825 24.4935 3.80254 25.3933 4.35664L25.398 4.35816C26.2787 4.89112 27.1467 5.44522 28.0051 6.08841H28.0067C29.5569 7.16616 31.0311 8.33929 32.4197 9.60021V9.60177C32.6668 9.36399 32.9235 9.13538 33.189 8.91631L33.3003 8.82119L33.391 8.74267L33.418 8.71852C33.5706 8.58565 33.7216 8.45883 33.8727 8.33352L33.8853 8.32446L34.2351 8.04061C34.5775 7.74303 34.9295 7.45552 35.2907 7.1785L35.5053 7.01242C35.9313 6.68932 36.3573 6.38282 36.7817 6.08992L36.7802 6.08841ZM43.7589 2.09795C43.212 2.31989 42.6524 2.57958 42.104 2.85286C42.0245 2.89665 41.9466 2.93589 41.8703 2.97515L41.7559 3.03404L41.4125 3.20918C41.363 3.23496 41.3137 3.26113 41.2647 3.28768L41.2297 3.3043L41.1788 3.33147L40.9515 3.45377C40.5655 3.66297 40.1839 3.87942 39.8069 4.10299C39.6575 4.19358 39.5048 4.28719 39.3554 4.38533H39.3538C37.9517 3.51784 36.4762 2.76235 34.9425 2.12664C34.1066 1.74065 33.2452 1.40628 32.364 1.12562C32.3148 1.09995 32.2575 1.09995 32.2083 1.06372C30.8077 0.595675 29.3849 0.233317 27.9638 0.0370403C28.0146 0.0113733 28.0529 0.0113733 28.1036 0.0113733C28.8397 -0.103373 29.5662 -0.2151 30.3006 -0.267944C31.1958 -0.335814 32.094 -0.362518 32.9919 -0.347965C33.472 -0.338906 33.9537 -0.314748 34.4322 -0.275493L34.5562 -0.263415C35.2493 -0.200002 35.9376 -0.0988435 36.6196 0.0113733C36.6753 0.0113733 36.7325 0.0355302 36.7865 0.0355302L36.796 0.0370403C37.6482 0.180474 38.5081 0.37524 39.3698 0.594165H39.3967C40.8704 0.983697 42.3217 1.48798 43.7604 2.09946" fill="#F58634"/>
</g>
</svg>
