<svg width="16" height="17" viewBox="0 0 16 17" fill="none" xmlns="http://www.w3.org/2000/svg">
<path fill-rule="evenodd" clip-rule="evenodd" d="M7.8988 16.7434C8.87634 16.7434 9.67615 16.0019 9.67615 15.0956H6.12146C6.12146 16.0019 6.92126 16.7434 7.8988 16.7434ZM13.2307 11.8001V7.68065C13.2307 5.15132 11.7822 3.03393 9.23174 2.47368V1.91344C9.23174 1.22962 8.63633 0.677612 7.89874 0.677612C7.16115 0.677612 6.56575 1.22962 6.56575 1.91344V2.47368C4.02417 3.03393 2.56676 5.14308 2.56676 7.68065V11.8001L0.789429 13.4479V14.2717H15.0081V13.4479L13.2307 11.8001ZM11.4535 12.624H4.34424V7.68065C4.34424 5.63742 5.68611 3.97316 7.89886 3.97316C10.1116 3.97316 11.4535 5.63742 11.4535 7.68065V12.624Z" fill="white"/>
</svg>
