<svg width="351" height="912" viewBox="0 0 351 912" fill="none" xmlns="http://www.w3.org/2000/svg">
<mask id="mask0" mask-type="alpha" maskUnits="userSpaceOnUse" x="0" y="-6" width="351" height="918">
<rect y="-6" width="351" height="918" fill="#C4C4C4"/>
</mask>
<g mask="url(#mask0)">
<path d="M214.741 282.028C214.741 292.898 212.615 303.661 208.483 313.704C204.35 323.746 198.293 332.871 190.658 340.557C183.023 348.244 173.959 354.341 163.983 358.5C154.008 362.66 143.316 364.801 132.518 364.801V282.028H214.741Z" fill="#FFD726"/>
<path d="M296.965 83.8194C291.595 83.8194 286.278 82.7483 281.317 80.669C276.356 78.5898 271.849 75.5404 268.051 71.698C264.255 67.854 261.242 63.2916 259.188 58.2706C257.134 53.2495 256.075 47.8676 256.075 42.4327C256.075 36.9978 257.134 31.6159 259.188 26.5949C261.242 21.5738 264.255 17.0114 268.051 13.1674C271.849 9.32504 276.356 6.27567 281.317 4.1964C286.278 2.11714 291.595 1.04605 296.965 1.04605V83.8194Z" fill="#F45B0F"/>
<path d="M116.518 447.127C105.72 447.127 95.0283 444.992 85.0525 440.843C75.0768 436.695 66.0126 430.614 58.3775 422.949C50.7422 415.283 44.6858 406.183 40.5536 396.168C36.4216 386.152 34.2948 375.418 34.2948 364.577C34.2948 353.737 36.4216 343.002 40.5536 332.987C44.6858 322.972 50.7422 313.871 58.3775 306.206C66.0126 298.54 75.0768 292.46 85.0525 288.311C95.0283 284.163 105.72 282.028 116.518 282.028V447.127Z" fill="#94C0D4"/>
<path d="M34.2948 83.8193H116.518V166.593C105.72 166.593 95.0283 164.452 85.0525 160.292C75.0768 156.132 66.0126 150.035 58.3775 142.348C50.7422 134.662 44.6858 125.537 40.5536 115.495C36.4216 105.453 34.2948 94.6891 34.2948 83.8193Z" fill="#F45B0F"/>
<path d="M132.518 1.49252C143.316 1.49252 154.008 3.62726 163.983 7.7762C173.959 11.9251 183.023 18.0057 190.658 25.6713C198.293 33.3369 204.35 42.4371 208.483 52.452C212.615 62.467 214.741 73.2017 214.741 84.0421C214.741 94.8825 212.615 105.617 208.483 115.632C204.35 125.647 198.293 134.747 190.658 142.413C183.023 150.079 173.959 156.159 163.983 160.308C154.008 164.457 143.316 166.592 132.518 166.592V1.49252Z" fill="#FFD726"/>
<path d="M313.409 447.127C313.409 436.257 315.53 425.494 319.651 415.451C323.772 405.409 329.813 396.284 337.427 388.598C345.042 380.911 354.082 374.814 364.03 370.655C373.978 366.495 384.642 364.354 395.41 364.354C406.178 364.354 416.842 366.495 426.79 370.655C436.739 374.814 445.778 380.911 453.393 388.598C461.008 396.284 467.048 405.409 471.169 415.451C475.291 425.494 477.411 436.257 477.411 447.127H313.409Z" fill="#048ECB"/>
<path d="M477.411 1.04605C477.411 11.9158 475.291 22.6797 471.169 32.7217C467.048 42.7638 461.008 51.8887 453.393 59.5751C445.778 67.2614 436.739 73.3585 426.79 77.5187C416.842 81.6788 406.178 83.8194 395.41 83.8194C384.642 83.8194 373.978 81.6788 364.03 77.5187C354.082 73.3585 345.042 67.2614 337.427 59.5751C329.813 51.8887 323.772 42.7638 319.651 32.7217C315.53 22.6797 313.409 11.9158 313.409 1.04605H477.411Z" fill="#FFD726"/>
<path d="M296.965 265.026C286.167 265.026 275.475 262.891 265.499 258.742C255.524 254.593 246.46 248.513 238.825 240.847C231.189 233.181 225.133 224.081 221 214.066C216.868 204.051 214.741 193.317 214.741 182.476C214.741 171.636 216.868 160.901 221 150.886C225.133 140.871 231.189 131.771 238.825 124.105C246.46 116.44 255.524 110.359 265.499 106.21C275.475 102.061 286.167 99.9266 296.965 99.9266V265.026Z" fill="#94C0D4"/>
<path d="M-47.9283 265.026V99.9266C-37.1306 99.9266 -26.4387 102.061 -16.4629 106.21C-6.48705 110.359 2.57707 116.44 10.2123 124.105C17.8474 131.771 23.904 140.871 28.036 150.886C32.168 160.901 34.2948 171.636 34.2948 182.476C34.2948 193.317 32.168 204.051 28.036 214.066C23.904 224.081 17.8474 233.181 10.2122 240.847C2.57707 248.513 -6.48705 254.593 -16.4629 258.742C-26.4387 262.891 -37.1306 265.026 -47.9283 265.026Z" fill="#FFD726"/>
<path d="M50.295 265.473C50.295 254.603 52.4161 243.84 56.537 233.798C60.658 223.755 66.698 214.631 74.3126 206.944C81.9271 199.258 90.9669 193.161 100.916 189.001C110.864 184.84 121.528 182.7 132.296 182.7C143.064 182.7 153.728 184.84 163.676 189.001C173.624 193.161 182.664 199.258 190.279 206.944C197.893 214.631 203.934 223.755 208.055 233.798C212.176 243.84 214.297 254.603 214.297 265.473H50.295Z" fill="#F45B0F"/>
<path d="M395.188 282.028C395.188 292.898 393.067 303.661 388.946 313.704C384.825 323.746 378.784 332.871 371.17 340.557C363.555 348.244 354.515 354.341 344.567 358.5C334.619 362.66 323.955 364.801 313.187 364.801C302.419 364.801 291.755 362.66 281.807 358.5C271.859 354.341 262.819 348.244 255.204 340.557C247.59 332.871 241.549 323.746 237.428 313.704C233.307 303.661 231.186 292.898 231.186 282.028H395.188Z" fill="#F45B0F"/>
<path d="M395.188 182.7H312.965V99.9266C323.762 99.9266 334.455 102.067 344.43 106.227C354.405 110.387 363.47 116.485 371.105 124.171C378.74 131.857 384.797 140.982 388.929 151.024C393.062 161.066 395.188 171.83 395.188 182.7Z" fill="#161616"/>
<path d="M255.853 364.354C278.558 364.354 296.965 382.883 296.965 405.74V447.127H214.741V405.74C214.741 382.883 233.148 364.354 255.853 364.354Z" fill="#E6E6E6"/>
<path d="M34.2948 42.4327C34.2948 65.2897 15.8885 83.8194 -6.81676 83.8194H-47.9283V1.04605H-6.81676C15.8885 1.04605 34.2948 19.5757 34.2948 42.4327Z" fill="#048ECB"/>
<path d="M165.185 381.356C183.227 381.356 197.852 396.079 197.852 414.242C197.852 432.404 183.227 447.127 165.185 447.127C147.144 447.127 132.518 432.404 132.518 414.242C132.518 396.079 147.144 381.356 165.185 381.356Z" fill="#F45B0F"/>
<path d="M-15.2613 282.475C2.78021 282.475 17.4057 297.199 17.4057 315.361C17.4057 333.523 2.78021 348.247 -15.2613 348.247C-33.3028 348.247 -47.9283 333.523 -47.9283 315.361C-47.9283 297.199 -33.3028 282.475 -15.2613 282.475Z" fill="#E6E6E6"/>
<path d="M82.9621 1.04605C101.004 1.04605 115.629 15.7694 115.629 33.9317C115.629 52.0939 101.004 66.8173 82.9621 66.8173C64.9206 66.8173 50.295 52.0939 50.295 33.9317C50.295 15.7694 64.9206 1.04605 82.9621 1.04605Z" fill="#161616"/>
<path d="M346.076 199.702C364.118 199.702 378.743 214.425 378.743 232.588C378.743 250.75 364.118 265.473 346.076 265.473C328.035 265.473 313.409 250.75 313.409 232.588C313.409 214.425 328.035 199.702 346.076 199.702Z" fill="#94C0D4"/>
<path d="M18.2947 746.901C18.2947 757.771 16.1684 768.534 12.0359 778.577C7.90334 788.619 1.84679 797.744 -5.78846 805.43C-13.4237 813.117 -22.488 819.213 -32.4633 823.373C-42.4386 827.533 -53.1309 829.674 -63.9285 829.674V746.901H18.2947Z" fill="#94C0D4"/>
<path d="M280.964 846.229C275.595 846.229 270.277 845.158 265.317 843.078C260.356 840.999 255.848 837.95 252.051 834.107C248.254 830.264 245.242 825.701 243.187 820.68C241.133 815.659 240.075 810.277 240.075 804.842C240.075 799.407 241.133 794.025 243.187 789.004C245.242 783.983 248.254 779.42 252.051 775.577C255.848 771.734 260.356 768.686 265.317 766.606C270.277 764.526 275.595 763.455 280.964 763.455V846.229Z" fill="#FFD726"/>
<path d="M100.518 548.692C95.1482 548.692 89.8309 547.621 84.8702 545.542C79.9095 543.463 75.4019 540.413 71.6041 536.571C67.8079 532.727 64.7952 528.164 62.7409 523.143C60.6866 518.122 59.6284 512.74 59.6284 507.306C59.6284 501.871 60.6866 496.489 62.7409 491.468C64.7952 486.447 67.8079 481.884 71.6041 478.04C75.4019 474.198 79.9095 471.149 84.8702 469.069C89.8309 466.99 95.1482 465.919 100.518 465.919V548.692Z" fill="#161616"/>
<path d="M-63.9285 465.919C-53.1309 465.919 -42.4386 468.054 -32.4633 472.203C-22.488 476.352 -13.4237 482.432 -5.78846 490.098C1.84679 497.763 7.90334 506.863 12.0359 516.878C16.1684 526.893 18.2947 537.628 18.2947 548.468C18.2947 559.309 16.1684 570.044 12.0359 580.059C7.90334 590.073 1.84679 599.174 -5.78846 606.839C-13.4237 614.505 -22.488 620.585 -32.4633 624.734C-42.4386 628.883 -53.1309 631.018 -63.9285 631.018V465.919Z" fill="#F45B0F"/>
<path d="M116.963 912C116.963 901.13 119.083 890.367 123.204 880.324C127.326 870.281 133.366 861.157 140.981 853.47C148.595 845.784 157.635 839.687 167.583 835.527C177.532 831.368 188.195 829.227 198.963 829.227C209.732 829.227 220.395 831.368 230.344 835.527C240.292 839.687 249.332 845.784 256.946 853.47C264.561 861.157 270.601 870.281 274.723 880.324C278.844 890.367 280.964 901.13 280.964 912H116.963Z" fill="#94C0D4"/>
<path d="M460.966 667.707C460.966 678.576 458.846 689.34 454.725 699.382C450.603 709.424 444.563 718.549 436.948 726.236C429.334 733.922 420.294 740.019 410.346 744.179C400.397 748.339 389.734 750.48 378.966 750.48C368.197 750.48 357.534 748.339 347.585 744.179C337.637 740.019 328.597 733.922 320.983 726.236C313.368 718.549 307.328 709.424 303.207 699.382C299.085 689.34 296.965 678.576 296.965 667.707H460.966Z" fill="#FFD726"/>
<path d="M296.965 746.901C307.762 746.901 318.454 749.036 328.43 753.184C338.405 757.333 347.469 763.413 355.105 771.079C362.74 778.744 368.796 787.845 372.929 797.86C377.061 807.875 379.188 818.61 379.188 829.45C379.188 840.291 377.061 851.025 372.929 861.041C368.796 871.056 362.74 880.156 355.105 887.822C347.469 895.487 338.405 901.568 328.43 905.716C318.454 909.865 307.762 912 296.965 912V746.901Z" fill="#048ECB"/>
<path d="M215.186 647.573C215.186 636.703 217.306 625.939 221.428 615.897C225.549 605.855 231.589 596.73 239.204 589.044C246.818 581.357 255.858 575.26 265.807 571.1C275.755 566.94 286.418 564.799 297.187 564.799C307.955 564.799 318.619 566.94 328.567 571.1C338.515 575.26 347.555 581.357 355.17 589.044C362.784 596.73 368.824 605.855 372.946 615.897C377.067 625.939 379.188 636.703 379.188 647.573H215.186Z" fill="#F45B0F"/>
<path d="M280.964 465.919C280.964 476.789 278.844 487.553 274.723 497.595C270.601 507.637 264.561 516.762 256.946 524.448C249.332 532.134 240.292 538.231 230.344 542.391C220.395 546.552 209.732 548.692 198.963 548.692C188.195 548.692 177.532 546.552 167.583 542.391C157.635 538.231 148.595 532.134 140.981 524.448C133.366 516.762 127.326 507.637 123.204 497.595C119.083 487.553 116.963 476.789 116.963 465.919H280.964Z" fill="#F45B0F"/>
<path d="M100.518 730.346C89.7203 730.346 79.028 728.211 69.0527 724.062C59.0774 719.913 50.0131 713.833 42.3778 706.167C34.7426 698.502 28.686 689.401 24.5535 679.386C20.421 669.372 18.2947 658.637 18.2947 647.796C18.2947 636.956 20.421 626.221 24.5535 616.206C28.686 606.191 34.7426 597.091 42.3778 589.426C50.0131 581.76 59.0774 575.679 69.0527 571.53C79.028 567.382 89.7203 565.247 100.518 565.247V730.346Z" fill="#94C0D4"/>
<path d="M-146.152 730.346C-146.152 719.476 -144.031 708.712 -139.91 698.67C-135.789 688.628 -129.749 679.503 -122.134 671.817C-114.52 664.131 -105.48 658.034 -95.5311 653.873C-85.5823 649.713 -74.919 647.573 -64.1507 647.573C-53.3823 647.573 -42.7189 649.713 -32.7705 653.873C-22.8222 658.034 -13.7824 664.131 -6.16779 671.817C1.44682 679.503 7.487 688.628 11.6084 698.67C15.7297 708.712 17.8503 719.476 17.8503 730.346H-146.152Z" fill="#048ECB"/>
<path d="M198.741 746.901C198.741 757.771 196.621 768.534 192.499 778.577C188.378 788.619 182.338 797.744 174.723 805.43C167.108 813.117 158.069 819.213 148.12 823.373C138.172 827.533 127.509 829.674 116.74 829.674C105.972 829.674 95.3084 827.533 85.3601 823.373C75.4117 819.213 66.3719 813.117 58.7573 805.43C51.1427 797.744 45.1025 788.619 40.9812 778.577C36.8598 768.534 34.7393 757.771 34.7393 746.901H198.741Z" fill="#F45B0F"/>
<path d="M198.741 647.573H116.518V564.799C127.316 564.799 138.008 566.94 147.983 571.1C157.959 575.26 167.023 581.357 174.658 589.044C182.293 596.73 188.35 605.855 192.482 615.897C196.615 625.939 198.741 636.703 198.741 647.573Z" fill="#94C0D4"/>
<path d="M198.741 664.127H280.965V746.901C270.167 746.901 259.475 744.76 249.499 740.6C239.524 736.44 230.46 730.343 222.825 722.656C215.189 714.97 209.133 705.845 205 695.803C200.868 685.761 198.741 674.997 198.741 664.127Z" fill="#FFD726"/>
<path d="M59.4063 829.227C82.1114 829.227 100.518 847.756 100.518 870.613V912H18.2947V870.613C18.2947 847.756 36.7012 829.227 59.4063 829.227Z" fill="#048ECB"/>
<path d="M296.965 507.306C296.965 484.449 315.371 465.919 338.076 465.919H379.188V548.692H338.076C315.371 548.692 296.965 530.163 296.965 507.306Z" fill="#FFD726"/>
<path d="M-31.2614 846.229C-13.2199 846.229 1.40562 860.952 1.40562 879.114C1.40562 897.276 -13.2199 912 -31.2614 912C-49.3029 912 -63.9285 897.276 -63.9285 879.114C-63.9285 860.952 -49.3029 846.229 -31.2614 846.229Z" fill="#E6E6E6"/>
<path d="M149.63 664.575C167.671 664.575 182.297 679.298 182.297 697.461C182.297 715.623 167.671 730.346 149.63 730.346C131.588 730.346 116.963 715.623 116.963 697.461C116.963 679.298 131.588 664.575 149.63 664.575Z" fill="#161616"/>
</g>
</svg>
