<svg width="23" height="23" viewBox="0 0 23 23" fill="none" xmlns="http://www.w3.org/2000/svg">
<path opacity="0.4" d="M16.491 0H6.5205C2.622 0 0 2.737 0 6.808V16.2035C0 20.263 2.622 23 6.5205 23H16.491C20.3895 23 23 20.263 23 16.2035V6.808C23 2.737 20.3895 0 16.491 0Z" fill="white"/>
<path d="M10.1342 15.2353C9.87661 15.2353 9.61901 15.1375 9.42236 14.9409L6.69341 12.212C6.30011 11.8187 6.30011 11.1816 6.69341 10.7894C7.08671 10.3961 7.72266 10.3949 8.11596 10.7882L10.1342 12.8065L14.8814 8.0593C15.2747 7.666 15.9107 7.666 16.304 8.0593C16.6973 8.4526 16.6973 9.0897 16.304 9.483L10.8461 14.9409C10.6494 15.1375 10.3918 15.2353 10.1342 15.2353Z" fill="white"/>
</svg>
