<svg width="10" height="6" viewBox="0 0 10 6" fill="none" xmlns="http://www.w3.org/2000/svg">
<path d="M8.96754 0.173436C8.81443 0.0468628 8.6175 -0.0140757 8.41965 0.00389635C8.22181 0.0218684 8.03909 0.117295 7.91129 0.269386L4.73683 4.0782L1.56233 0.269449C1.43489 0.11676 1.25202 0.0209489 1.05394 0.00309192C0.855867 -0.014765 0.658809 0.0467951 0.50612 0.17423C0.353432 0.301665 0.25762 0.484535 0.239763 0.682612C0.221906 0.880689 0.283467 1.07775 0.410902 1.23044L4.16111 5.73063C4.23146 5.815 4.3195 5.88287 4.41898 5.92945C4.51847 5.97603 4.62698 6.00017 4.73683 6.00017C4.84668 6.00017 4.95518 5.97603 5.05467 5.92945C5.15415 5.88287 5.24219 5.815 5.31254 5.73063L9.06275 1.23037C9.19014 1.07753 9.25167 0.880375 9.23382 0.682206C9.21596 0.484037 9.1202 0.301053 8.96754 0.173436Z" fill="white"/>
</svg>
