<svg width="50" height="59" viewBox="0 0 50 59" fill="none" xmlns="http://www.w3.org/2000/svg">
<path opacity="0.4" d="M44.5759 20.4435C43.2613 20.4435 41.52 20.4144 39.3521 20.4144C34.0648 20.4144 29.7173 16.038 29.7173 10.7007V1.3365C29.7173 0.599824 29.1263 0 28.3969 0H12.9963C5.812 0 0 5.89923 0 13.1291V44.5034C0 52.0886 6.08876 58.2353 13.5988 58.2353H36.5297C43.6938 58.2353 49.5 52.3739 49.5 45.1382V21.7538C49.5 21.0142 48.9119 20.4173 48.1796 20.4202C46.9486 20.4289 45.4725 20.4435 44.5759 20.4435Z" fill="#FA4169"/>
<path opacity="0.4" d="M36.6406 1.65199C35.7729 0.746431 34.25 1.36955 34.25 2.62452V10.3028C34.25 13.5233 36.9026 16.173 40.123 16.173C42.1525 16.1963 44.9711 16.2021 47.3646 16.1963C48.5904 16.1933 49.2136 14.7287 48.3633 13.8435C45.2914 10.6493 39.7911 4.92481 36.6406 1.65199Z" fill="#FA4169"/>
<path d="M27.4723 31.9868L31.0276 28.4286C31.8749 27.5842 31.8749 26.2128 31.0276 25.3655C30.1803 24.5181 28.8088 24.5181 27.9615 25.3655L24.4062 28.9178L20.851 25.3655C20.0037 24.5181 18.6293 24.5181 17.782 25.3655C16.9347 26.2128 16.9347 27.5842 17.782 28.4286L21.3402 31.9868L17.782 35.5421C16.9347 36.3894 16.9347 37.7609 17.782 38.6053C18.2071 39.0304 18.7603 39.2429 19.3165 39.2429C19.8726 39.2429 20.4259 39.0304 20.851 38.6053L24.4062 35.0529L27.9615 38.6053C28.3837 39.0304 28.9399 39.2429 29.496 39.2429C30.0492 39.2429 30.6054 39.0304 31.0276 38.6053C31.8749 37.7609 31.8749 36.3894 31.0276 35.5421L27.4723 31.9868Z" fill="#FA4169"/>
</svg>
