<svg width="49" height="49" viewBox="0 0 49 49" fill="none" xmlns="http://www.w3.org/2000/svg">
<circle opacity="0.15" cx="24.5" cy="24.5" r="24.5" fill="#F58634"/>
<path opacity="0.4" d="M27.5183 16H30.2893C31.4368 16 32.3667 16.9276 32.3667 18.0723V20.8364C32.3667 21.9811 31.4368 22.9087 30.2893 22.9087H27.5183C26.3708 22.9087 25.4409 21.9811 25.4409 20.8364V18.0723C25.4409 16.9276 26.3708 16 27.5183 16Z" fill="#F58634"/>
<path fill-rule="evenodd" clip-rule="evenodd" d="M18.0774 16H20.8484C21.9959 16 22.9258 16.9276 22.9258 18.0723V20.8364C22.9258 21.9811 21.9959 22.9087 20.8484 22.9087H18.0774C16.9299 22.9087 16 21.9811 16 20.8364V18.0723C16 16.9276 16.9299 16 18.0774 16ZM18.0774 25.2813H20.8484C21.9959 25.2813 22.9258 26.2089 22.9258 27.3537V30.1178C22.9258 31.2617 21.9959 32.1901 20.8484 32.1901H18.0774C16.9299 32.1901 16 31.2617 16 30.1178V27.3537C16 26.2089 16.9299 25.2813 18.0774 25.2813ZM30.2893 25.2813H27.5184C26.3708 25.2813 25.4409 26.2089 25.4409 27.3537V30.1178C25.4409 31.2617 26.3708 32.1901 27.5184 32.1901H30.2893C31.4369 32.1901 32.3667 31.2617 32.3667 30.1178V27.3537C32.3667 26.2089 31.4369 25.2813 30.2893 25.2813Z" fill="#F58634"/>
</svg>
